<?xml version="1.0" encoding="UTF-8" standalone="no"?>
<!-- Created with Inkscape (http://www.inkscape.org/) -->

<svg
   version="1.1"
   id="svg5334"
   width="384"
   height="227"
   viewBox="0 0 384 227"
   sodipodi:docname="pic03.svg"
   inkscape:version="1.2.1 (9c6d41e410, 2022-07-14)"
   xml:space="preserve"
   xmlns:inkscape="http://www.inkscape.org/namespaces/inkscape"
   xmlns:sodipodi="http://sodipodi.sourceforge.net/DTD/sodipodi-0.dtd"
   xmlns="http://www.w3.org/2000/svg"
   xmlns:svg="http://www.w3.org/2000/svg"><defs
     id="defs5338"><clipPath
       clipPathUnits="userSpaceOnUse"
       id="clipPath2911"><path
         d="m 1985.2,855.422 c -3.89,2.324 -7.9,4.48 -12.01,6.445 10.41,-0.504 20.64,-1.75 30.62,-3.679 -6.12,-1.184 -12.32,-2.114 -18.61,-2.766"
         id="path2909" /></clipPath><clipPath
       clipPathUnits="userSpaceOnUse"
       id="clipPath2923"><path
         d="m 1962.65,854.25 c -30.62,0 -59.74,6.398 -86.1,17.93 10.82,2.55 22.09,3.898 33.68,3.898 22.54,0 43.89,-5.101 62.96,-14.211 4.11,-1.965 8.12,-4.121 12.01,-6.445 -7.41,-0.774 -14.94,-1.172 -22.55,-1.172"
         id="path2921" /></clipPath><clipPath
       clipPathUnits="userSpaceOnUse"
       id="clipPath3013"><path
         d="m 3244.98,854.887 c -6.63,0 -13.18,0.304 -19.65,0.906 7.8,0.879 15.73,1.328 23.76,1.328 6.63,0 13.18,-0.305 19.65,-0.906 -7.8,-0.879 -15.73,-1.328 -23.76,-1.328"
         id="path3011" /></clipPath></defs><sodipodi:namedview
     id="namedview5336"
     pagecolor="#ffffff"
     bordercolor="#666666"
     borderopacity="1.0"
     inkscape:showpageshadow="2"
     inkscape:pageopacity="0.0"
     inkscape:pagecheckerboard="0"
     inkscape:deskcolor="#d1d1d1"
     showgrid="false"
     inkscape:zoom="1.0886953"
     inkscape:cx="222.74369"
     inkscape:cy="130.43136"
     inkscape:window-width="1600"
     inkscape:window-height="838"
     inkscape:window-x="0"
     inkscape:window-y="25"
     inkscape:window-maximized="1"
     inkscape:current-layer="g5340"
     inkscape:lockguides="false" /><g
     inkscape:groupmode="layer"
     inkscape:label="Image"
     id="g5340"><rect
       style="fill:#ececec;stroke:none;stroke-width:1.30065"
       id="rect2318"
       width="385"
       height="225.82352"
       x="0.64999998"
       y="0.64999998" /><g
       id="g2336"
       transform="matrix(0.63326676,0,0,0.63326676,-109.61548,34.043003)"><path
         style="fill:#000000"
         d="m 280.09592,235.70471 c -21.8237,-0.53418 -25.13915,-0.83785 -30.35109,-2.77993 -7.78087,-2.89931 -11.60425,-5.36142 -16.39264,-10.5562 -8.92924,-9.68709 -10.77951,-25.54332 -4.53595,-38.87175 3.90122,-8.32812 83.76556,-153.131539 87.33448,-158.347644 3.84066,-5.613276 10.32851,-11.267823 15.8228,-13.790521 6.80918,-3.126434 18.83588,-2.967422 25.58639,0.338292 11.20522,5.487167 12.43262,7.371037 60.68568,93.142813 24.55731,43.65164 45.44466,81.61661 46.41633,84.36661 2.67325,7.56585 2.44392,19.60887 -0.50027,26.27011 -4.43853,10.04221 -15.46669,17.65088 -29.41859,20.29681 -5.24779,0.99522 -113.1407,0.94737 -154.64714,-0.0686 z m 157.22333,-22.6803 c 2.87251,-1.32698 5.516,-3.48213 6.74626,-5.5 2.29348,-3.76178 2.41457,-4.90402 1.04077,-9.81803 -1.54936,-5.54204 -88.45186,-159.059993 -92.39433,-163.219577 -1.93899,-2.045768 -4.7183,-4.01897 -6.17625,-4.384892 -3.54847,-0.890609 -8.57793,1.607971 -11.83658,5.880279 -4.06955,5.335452 -86.28151,154.91846 -87.6443,159.46702 -2.36711,7.90073 0.33175,13.25111 8.55475,16.95944 3.50509,1.5807 8.21175,1.86501 38.98635,2.35501 19.25,0.3065 58.175,0.5315 86.5,0.5 50.76124,-0.0565 51.56776,-0.0886 56.22333,-2.23925 z m -74.50153,-11.72459 c -0.81873,-7.93275 0.86673,-18.92648 3.95754,-25.81371 4.81807,-10.7361 14.20223,-21.10393 23.32066,-25.76522 4.58826,-2.3455 17.14766,-6.20018 17.86483,-5.48301 0.30824,0.30824 1.30465,2.52097 2.21423,4.91718 l 1.65379,4.35674 -8.23716,4.08168 c -16.65747,8.2541 -29.49569,27.76364 -29.49569,44.823 v 4.2899 h -5.3601 -5.36009 z m -36.13291,-31.67017 c -6.08467,-7.23122 -1.61715,-16.92327 7.80074,-16.92327 6.01519,0 9.61037,3.82168 9.61037,10.21583 0,3.9161 -0.46106,4.99434 -3.07673,7.19528 -4.59054,3.86268 -10.85299,3.64956 -14.33438,-0.48784 z m -36.30353,-19.22454 c 0.29627,-0.77206 2.55225,-4.54513 5.01328,-8.38459 l 4.47461,-6.98084 11.60216,-0.98877 c 6.38118,-0.54382 11.83232,-1.21893 12.11363,-1.50024 0.28132,-0.28131 -1.34625,-5.49816 -3.6168,-11.59299 l -4.12828,-11.08152 4.87802,-8.05896 c 2.68291,-4.432423 5.10302,-8.067454 5.37802,-8.077842 0.275,-0.01039 3.84786,9.795132 7.93969,21.790042 l 7.43968,21.80894 -2.97682,4.43402 -2.97683,4.43402 -17.5024,2.09325 c -9.62631,1.15129 -19.90409,2.41185 -22.83951,2.80124 -4.36692,0.5793 -5.2392,0.45282 -4.79845,-0.69576 z M 349.019,138.7833 c -7.77318,-7.77318 0.4591,-20.13997 11.11421,-16.69611 7.92588,2.56174 8.75135,15.11631 1.21955,18.54803 -4.4323,2.01949 -9.17438,1.30747 -12.33376,-1.85192 z"
         id="path2475" /></g><text
       xml:space="preserve"
       style="font-style:normal;font-variant:normal;font-weight:normal;font-stretch:normal;font-size:28.8484px;line-height:1.25;font-family:Cantarell;-inkscape-font-specification:'Cantarell, Normal';font-variant-ligatures:normal;font-variant-caps:normal;font-variant-numeric:normal;font-variant-east-asian:normal;stroke-width:1.66433"
       x="207.78519"
       y="70.366974"
       id="text2531"><tspan
         sodipodi:role="line"
         id="tspan2529"
         x="207.78519"
         y="70.366974"
         style="font-style:normal;font-variant:normal;font-weight:bold;font-stretch:normal;font-size:28.8484px;font-family:Cantarell;-inkscape-font-specification:'Cantarell Bold';font-variant-ligatures:normal;font-variant-caps:normal;font-variant-numeric:normal;font-variant-east-asian:normal;stroke-width:1.66433">DRM</tspan><tspan
         sodipodi:role="line"
         x="207.78519"
         y="106.42747"
         id="tspan2533"
         style="font-style:normal;font-variant:normal;font-weight:normal;font-stretch:normal;font-size:28.8484px;font-family:Cantarell;-inkscape-font-specification:'Cantarell, Normal';font-variant-ligatures:normal;font-variant-caps:normal;font-variant-numeric:normal;font-variant-east-asian:normal;stroke-width:1.66433">Defective</tspan><tspan
         sodipodi:role="line"
         x="207.78519"
         y="142.48798"
         id="tspan2535"
         style="font-style:normal;font-variant:normal;font-weight:normal;font-stretch:normal;font-size:28.8484px;font-family:Cantarell;-inkscape-font-specification:'Cantarell, Normal';font-variant-ligatures:normal;font-variant-caps:normal;font-variant-numeric:normal;font-variant-east-asian:normal;stroke-width:1.66433">By </tspan><tspan
         sodipodi:role="line"
         x="207.78519"
         y="178.54848"
         id="tspan2537"
         style="font-style:normal;font-variant:normal;font-weight:normal;font-stretch:normal;font-size:28.8484px;font-family:Cantarell;-inkscape-font-specification:'Cantarell, Normal';font-variant-ligatures:normal;font-variant-caps:normal;font-variant-numeric:normal;font-variant-east-asian:normal;stroke-width:1.66433">Design</tspan></text></g></svg>
