<?xml version="1.0" encoding="UTF-8" standalone="no"?>
<!-- Created with Inkscape (http://www.inkscape.org/) -->

<svg
   width="1920"
   height="1080"
   viewBox="0 0 1920 1080"
   version="1.1"
   id="svg5"
   xml:space="preserve"
   inkscape:version="1.2 (dc2aedaf03, 2022-05-15)"
   sodipodi:docname="pic09.svg"
   xmlns:inkscape="http://www.inkscape.org/namespaces/inkscape"
   xmlns:sodipodi="http://sodipodi.sourceforge.net/DTD/sodipodi-0.dtd"
   xmlns="http://www.w3.org/2000/svg"
   xmlns:svg="http://www.w3.org/2000/svg"><sodipodi:namedview
     id="namedview7"
     pagecolor="#ffffff"
     bordercolor="#000000"
     borderopacity="0.25"
     inkscape:showpageshadow="2"
     inkscape:pageopacity="0.0"
     inkscape:pagecheckerboard="0"
     inkscape:deskcolor="#d1d1d1"
     inkscape:document-units="px"
     showgrid="false"
     inkscape:zoom="0.3077224"
     inkscape:cx="913.16071"
     inkscape:cy="521.574"
     inkscape:window-width="1366"
     inkscape:window-height="704"
     inkscape:window-x="0"
     inkscape:window-y="0"
     inkscape:window-maximized="1"
     inkscape:current-layer="layer1" /><defs
     id="defs2" /><g
     inkscape:label="Layer 1"
     inkscape:groupmode="layer"
     id="layer1"><path
       style="fill:#000000;stroke-width:2.52174"
       d="M 276.68117,879.449 C 275.75652,878.52438 275,718.52009 275,523.88392 V 170 H 968.47795 1661.9559 V 525.56509 881.13017 H 970.15916 c -380.48827,0 -692.55337,-0.75652 -693.47799,-1.68117 z M 731.43458,630.21722 V 417.13034 H 519.60861 307.7826 v 211.40571 c 0,116.27317 0.75652,212.16226 1.68116,213.08688 0.92462,0.92465 96.24633,1.68117 211.82601,1.68117 h 210.14481 z m -255.9564,160.34296 c -71.17084,-1.08294 -100.35511,-2.38168 -105.61193,-4.69995 -21.17342,-9.33746 -31.82279,-24.65321 -31.82279,-45.7671 0,-14.27071 3.83907,-22.33065 53.53682,-112.39765 16.07137,-29.12608 40.98284,-74.26787 55.35887,-100.3151 30.62504,-55.48817 36.70276,-63.73388 51.94697,-70.47711 19.02273,-8.41466 40.67034,-1.84061 54.57899,16.57478 3.30519,4.37615 36.21042,61.57881 73.12276,127.11701 43.65147,77.50374 68.12495,123.54296 70.00705,131.69685 5.42888,23.51922 -8.32298,47.16929 -32.11696,55.23365 -12.51491,4.24162 -59.78932,5.00067 -188.99978,3.03462 z m 177.55597,-25.33513 c 4.72963,-1.37288 11.25467,-4.99059 14.49989,-8.0394 9.84111,-9.24521 7.89448,-19.52488 -9.6728,-51.08101 -73.7706,-132.51351 -121.94238,-215.70832 -128.26415,-221.5178 -16.376,-15.04893 -27.59322,-6.82577 -52.45847,38.45651 -9.52002,17.33694 -39.03706,70.93163 -65.59346,119.09927 -40.42415,73.32082 -48.28432,89.24684 -48.28432,97.83197 0,12.83955 8.02301,21.64047 21.78346,23.89556 5.35604,0.87775 11.44044,1.92537 13.52087,2.32805 10.93565,2.11664 246.93349,1.21414 254.46898,-0.97315 z m -108.20617,-32.247 c 0.002,-30.02412 18.7297,-58.91317 46.30466,-71.43459 14.18229,-6.43999 20.39268,-6.1167 23.74279,1.23601 2.61128,5.73115 1.98044,6.47131 -10.87817,12.76239 -22.73763,11.12449 -40.18612,35.97912 -43.21566,61.55896 -1.43963,12.15543 -1.94353,12.89897 -8.74166,12.89897 h -7.21396 z M 490.6506,693.53191 c -7.3694,-7.3694 -7.82863,-10.9023 -2.42074,-18.62316 5.16245,-7.37044 19.92721,-7.82278 23.72482,-0.7269 5.53474,10.34175 1.46732,20.81981 -9.32582,24.02428 -4.10784,1.21961 -7.34935,-0.0453 -11.97826,-4.67422 z m -56.78109,-28.70706 c 0,-0.504 3.35462,-5.79208 7.45469,-11.75136 7.29894,-10.60862 7.82581,-10.87156 25.21738,-12.58529 11.06695,-1.09052 17.76221,-2.88095 17.76143,-4.74977 -7.1e-4,-1.64971 -2.34252,-9.15937 -5.20404,-16.68817 -5.81127,-15.28973 -5.19999,-20.76011 3.52473,-31.54346 l 5.99222,-7.4061 10.61563,31.85473 c 10.52157,31.57246 10.90256,36.24708 3.63044,44.54363 -1.19673,1.36534 -68.99248,9.54671 -68.99248,8.32579 z m 91.34368,-17.09845 c -11.48343,-8.04331 -4.95633,-26.33526 9.39719,-26.33526 13.29437,0 18.81932,14.32117 9.22597,23.91452 -7.36939,7.36941 -10.9023,7.82863 -18.62316,2.42074 z M 1616.5647,630.21722 V 417.13034 H 1196.6954 776.8259 v 211.40571 c 0,116.27317 0.75656,212.16226 1.6812,213.08688 0.92464,0.92465 189.86586,1.68117 419.8693,1.68117 h 418.1883 z m -364.7684,130.41974 c -32.7858,-0.8287 -29.5809,2.85723 -33.796,-38.86771 -5.9087,-58.48975 -10.3168,-62.55204 -67.8761,-62.55204 h -35.3853 v 50.43477 50.43475 h -29 -29 V 628.95635 497.82596 h 77.8842 c 89.5564,0 95.8913,1.0523 116.1863,19.29917 16.3377,14.689 23.3119,31.32249 23.2176,55.37457 -0.1087,27.9916 -12.3772,51.39726 -30.9757,59.1011 -3.998,1.65599 -7.266,3.72433 -7.2622,4.59626 0,0.87195 4.259,3.85493 9.4566,6.62886 15.9052,8.48907 22.9063,26.22085 26.9868,68.35186 1.8664,19.27167 4.6733,38.31743 6.2378,42.32391 1.5645,4.00649 2.5288,7.41084 2.1432,7.56522 -0.3856,0.15434 -13.3534,-0.039 -28.8172,-0.42995 z m -52.6657,-147.87325 c 5.0518,-2.11084 10.3477,-7.00735 12.8846,-11.91284 5.6772,-10.97856 5.7342,-31.41448 0.1159,-42.07142 -6.9481,-13.18279 -16.0435,-15.5622 -59.4865,-15.5622 h -37.9069 v 36.56521 36.5652 h 37.9069 c 27.0565,0 40.3622,-1.02587 46.4848,-3.58395 z M 791.9563,628.95635 V 497.82596 h 63.96018 c 35.17803,0 70.0677,1.15829 77.53256,2.57397 20.63279,3.9129 42.69286,15.41712 57.00176,29.72597 23.3812,23.38123 33.5278,52.93094 33.4682,97.46897 -0.073,53.90204 -14.9941,89.24206 -47.5142,112.5292 -25.17394,18.02665 -36.36243,19.96266 -115.36632,19.96266 H 791.9563 Z m 140.26975,76.33599 c 12.03729,-6.37296 22.22663,-17.62937 27.60075,-30.49127 13.72614,-32.85137 6.59688,-90.3794 -13.59699,-109.71737 -13.94843,-13.35719 -28.90865,-17.56187 -63.45562,-17.83467 l -31.55696,-0.24914 -0.66521,82.82412 -0.66521,82.82411 35.96952,-0.92479 c 31.01526,-0.7974 37.40193,-1.68316 46.36972,-6.43097 z M 1311.4344,628.95635 V 497.82596 h 41.6087 c 22.8848,0 41.6088,0.44046 41.6088,0.97877 0,1.40786 54.9798,163.87084 58.3043,172.28634 2.5618,6.48566 4.0615,3.07327 19.0709,-43.39559 8.9594,-27.73912 22.0782,-68.30758 29.1525,-90.15214 l 12.8626,-39.71738 h 41.1742 41.1744 v 131.13039 131.13038 h -27.7392 -27.7391 l -0.1261,-92.67387 -0.126,-92.67388 -32.0216,92.67388 -32.0213,92.67387 -22.6994,-0.01 -22.6995,-0.01 -32.0286,-91.40209 -32.0286,-91.40377 -0.1235,91.41301 -0.1236,91.41301 h -27.7391 -27.7391 z M 441.43472,356.60863 V 341.4782 h -44.23648 -44.23651 l 0.73653,-19.54348 0.7365,-19.54346 39.08694,-1.26087 39.08694,-1.26087 -0.35824,-11.34783 c -0.19694,-6.2413 -0.48072,-12.1989 -0.63044,-13.23912 -0.14978,-1.04022 -17.91316,-1.8913 -39.47435,-1.8913 h -39.20216 l 0.74565,-17.02174 0.74566,-17.02173 42.23911,-0.69141 42.23911,-0.69141 v -15.18215 -15.18215 l -59.89128,0.74313 -59.89129,0.74313 -0.66535,81.32605 -0.66539,81.32606 h 61.81754 61.81751 z m 153.82603,0.0641 v -15.06638 l -39.71737,-0.69449 -39.71738,-0.69445 -0.67273,-66.41298 -0.67272,-66.41298 -16.97945,0.93744 -16.97944,0.93742 -0.66536,81.23642 -0.66539,81.23641 h 58.03494 58.0349 z m 70.60872,-65.35942 c 0,-62.02825 -0.72109,-80.69658 -3.15221,-81.60943 -1.73375,-0.65098 -9.96084,-1.05607 -18.2826,-0.90023 l -15.1304,0.28336 -0.66776,78.14928 c -0.36731,42.98213 -0.1193,79.57885 0.55123,81.32606 0.82032,2.13777 7.0184,3.17679 18.95037,3.17679 l 17.73137,-4e-5 v -80.42581 z m 78.75598,24.31713 0.67874,-56.10868 14.86199,42.86955 c 8.1742,23.57825 17.0502,48.82716 19.72467,56.10867 l 4.86268,13.23912 h 13.41394 13.41416 l 9.07168,-25.8478 c 4.98951,-14.21631 13.90752,-39.46521 19.81791,-56.10868 l 10.74601,-30.26086 0.67862,56.10868 0.67862,56.10866 h 16.37801 16.378 l -0.66532,-81.32605 -0.66543,-81.32606 -24.38879,-0.71934 c -23.51248,-0.69354 -24.4502,-0.51233 -26.09781,5.04347 -8.33352,28.0994 -32.43438,101.97833 -33.73974,103.42602 -0.91111,1.0104 -8.31866,-18.28089 -16.46137,-42.86956 -8.1426,-24.58869 -16.8829,-49.57238 -19.42278,-55.51933 l -4.61799,-10.81267 -23.37478,0.72571 -23.37489,0.7257 -0.66532,81.32606 -0.66543,81.32605 h 16.378 16.378 z m 221.41063,-24.30623 c -0.11796,-43.53471 -0.7457,-80.01365 -1.39505,-81.06431 -0.64936,-1.05065 -8.27886,-1.74436 -16.95441,-1.54159 l -15.77377,0.36868 -0.66554,81.43725 -0.66554,81.43723 17.83436,-0.74162 17.83448,-0.74161 -0.21464,-79.15403 z m 81.19622,26.82796 0.6806,-53.58694 32.7826,53.47853 32.7825,53.47853 18.3173,0.10843 18.3178,0.10843 -0.6656,-81.32606 -0.6651,-81.32605 -15.7114,-0.74949 -15.7115,-0.74948 -0.6798,54.96685 -0.6799,54.96681 -31.2426,-50.43477 c -17.1831,-27.73912 -32.7405,-52.05044 -34.5715,-54.02513 -1.9863,-2.1421 -9.9828,-4.00659 -19.8229,-4.6222 l -16.4935,-1.03179 v 82.16564 82.16561 h 16.3412 16.3412 z m 173.7704,35.93477 5.6852,-17.65217 h 30.88 30.8799 l 5.6853,17.65217 5.6852,17.65216 h 18.6866 c 13.8705,0 18.3953,-0.81237 17.5566,-3.15217 -19.524,-54.46548 -58.9646,-157.41219 -60.7725,-158.62681 -2.497,-1.67751 -33.933,-1.06909 -35.4994,0.68705 -1.5248,1.70936 -59.4855,156.44601 -59.4855,158.80773 0,1.25632 7.8778,2.2842 17.5065,2.2842 h 17.5067 z m 17.4501,-48.54346 c 0.3656,-7.74211 19.6759,-55.7749 21.0361,-52.32606 0.8206,2.08043 5.3928,15.41412 10.1606,29.63042 l 8.6685,25.84781 h -20.0069 c -14.404,0 -19.9654,-0.88278 -19.8583,-3.15217 z m 178.8947,-0.63044 v -66.82606 h 24.0823 24.0823 l -0.7562,-14.49999 -0.7563,-14.5 h -65.5651 -65.5653 l -0.7562,14.5 -0.7566,14.49999 h 23.809 c 23.4264,0 23.835,0.10344 25.4252,6.43941 0.8889,3.54165 1.541,32.7623 1.449,64.93476 -0.091,32.17244 -0.1286,59.34643 -0.083,60.38665 0.048,1.04022 8.0289,1.8913 17.7376,1.8913 h 17.6523 z m 204.2607,51.69564 v -15.13043 h -44.2365 -44.2366 l 0.7366,-19.54347 0.7366,-19.54347 39.8467,-0.69512 39.847,-0.69514 -0.76,-13.17442 -0.7599,-13.17445 -39.8313,-0.69503 -39.8311,-0.69504 0.7441,-16.95714 0.7445,-16.95712 42.363,-0.69196 42.3631,-0.69197 -0.7545,-14.43847 -0.7543,-14.43846 h -59.2608 -59.2608 l -0.6655,81.32606 -0.6656,81.32605 h 61.8177 61.8176 z"
       id="path179" /></g></svg>
