<?xml version="1.0" encoding="UTF-8" standalone="no"?>
<!-- Created with Inkscape (http://www.inkscape.org/) -->

<svg
   version="1.1"
   id="svg5334"
   width="384"
   height="227"
   viewBox="0 0 384 227"
   sodipodi:docname="pic02.svg"
   inkscape:version="1.2.1 (9c6d41e410, 2022-07-14)"
   xml:space="preserve"
   xmlns:inkscape="http://www.inkscape.org/namespaces/inkscape"
   xmlns:sodipodi="http://sodipodi.sourceforge.net/DTD/sodipodi-0.dtd"
   xmlns="http://www.w3.org/2000/svg"
   xmlns:svg="http://www.w3.org/2000/svg"><defs
     id="defs5338"><clipPath
       clipPathUnits="userSpaceOnUse"
       id="clipPath2911"><path
         d="m 1985.2,855.422 c -3.89,2.324 -7.9,4.48 -12.01,6.445 10.41,-0.504 20.64,-1.75 30.62,-3.679 -6.12,-1.184 -12.32,-2.114 -18.61,-2.766"
         id="path2909" /></clipPath><clipPath
       clipPathUnits="userSpaceOnUse"
       id="clipPath2923"><path
         d="m 1962.65,854.25 c -30.62,0 -59.74,6.398 -86.1,17.93 10.82,2.55 22.09,3.898 33.68,3.898 22.54,0 43.89,-5.101 62.96,-14.211 4.11,-1.965 8.12,-4.121 12.01,-6.445 -7.41,-0.774 -14.94,-1.172 -22.55,-1.172"
         id="path2921" /></clipPath><clipPath
       clipPathUnits="userSpaceOnUse"
       id="clipPath3013"><path
         d="m 3244.98,854.887 c -6.63,0 -13.18,0.304 -19.65,0.906 7.8,0.879 15.73,1.328 23.76,1.328 6.63,0 13.18,-0.305 19.65,-0.906 -7.8,-0.879 -15.73,-1.328 -23.76,-1.328"
         id="path3011" /></clipPath></defs><sodipodi:namedview
     id="namedview5336"
     pagecolor="#ffffff"
     bordercolor="#666666"
     borderopacity="1.0"
     inkscape:showpageshadow="2"
     inkscape:pageopacity="0.0"
     inkscape:pagecheckerboard="0"
     inkscape:deskcolor="#d1d1d1"
     showgrid="false"
     inkscape:zoom="1.0886953"
     inkscape:cx="102.41617"
     inkscape:cy="118.49046"
     inkscape:window-width="1600"
     inkscape:window-height="838"
     inkscape:window-x="0"
     inkscape:window-y="25"
     inkscape:window-maximized="1"
     inkscape:current-layer="g5340"
     inkscape:lockguides="false" /><g
     inkscape:groupmode="layer"
     inkscape:label="Image"
     id="g5340"><rect
       style="fill:#ececec;stroke:none;stroke-width:1.30065"
       id="rect2318"
       width="385"
       height="225.82352"
       x="0.64999998"
       y="0.64999998" /><g
       id="g2336"
       transform="translate(-2.9221328)"><path
         style="fill:#000000;stroke-width:0.421506"
         d="m 145.86739,172.38396 c -15.7643,-2.25379 -30.65398,-4.36629 -33.08817,-4.69442 l -4.42581,-0.5966 -0.1087,-25.18495 -0.10869,-25.18494 h 34.14525 34.14526 v 29.92688 29.92689 l -0.94839,-0.0475 c -0.52161,-0.0262 -13.84645,-1.89153 -29.61075,-4.14534 z M 96.762014,165.532 c -2.897849,-0.3955 -14.297742,-1.96061 -25.333097,-3.47801 -11.035355,-1.51739 -20.18729,-2.7589 -20.337634,-2.7589 -0.150345,0 -0.273354,-9.75011 -0.273354,-21.66691 v -21.66691 l 25.606452,0.22574 c 14.083548,0.12415 25.655389,0.26546 25.715199,0.31401 0.0598,0.0485 0.0598,11.26218 0,24.91918 l -0.10875,24.83091 z M 50.817929,89.754732 V 68.265988 l 0.948388,-0.215896 c 0.521613,-0.118743 11.570322,-1.642551 24.552687,-3.386239 12.982365,-1.743687 24.125916,-3.277477 24.763436,-3.40842 l 1.15914,-0.238078 v 25.11306 25.113065 H 76.529757 50.817929 Z m 57.324731,-4.223084 c 0,-13.909678 0.0639,-25.290322 0.14192,-25.290322 0.0781,0 6.00548,-0.861288 13.17205,-1.913972 31.83655,-4.676419 53.45304,-7.780652 54.181,-7.780652 0.76343,0 0.7889,0.9637 0.7889,29.858434 v 29.858444 l -16.12258,0.27859 c -8.86741,0.15323 -24.23129,0.27888 -34.14193,0.27921 l -18.01936,5.9e-4 z"
         id="path2264" /><path
         style="fill:#000000;stroke-width:0.200255"
         d="m 256.23182,184.29586 c -5.15434,-1.39563 -10.5514,-6.02783 -16.81915,-14.43556 -1.10844,-1.48691 -2.64649,-3.64965 -3.41793,-4.80613 -7.40635,-11.10331 -12.60216,-25.42346 -13.97799,-38.52478 -0.39557,-3.76674 -0.40009,-10.83974 -0.009,-14.18237 1.45173,-12.41038 7.21573,-22.822068 16.22387,-29.305624 2.28308,-1.643237 7.00346,-4.02621 9.63767,-4.865349 3.31941,-1.057411 5.64476,-1.451256 9.28716,-1.572961 4.92777,-0.164657 7.3497,0.36162 16.34551,3.551833 4.79213,1.699449 7.89374,2.594309 8.99199,2.594309 0.96284,0 4.74528,-1.134252 9.98236,-2.993441 7.5555,-2.682242 11.7804,-3.618569 16.29392,-3.611076 5.61112,0.0093 11.52416,1.362568 16.62067,3.80379 3.11723,1.49315 5.64786,3.225819 8.01742,5.489357 1.83354,1.751504 4.25006,4.557724 4.25006,4.935441 0,0.104973 -0.51817,0.519924 -1.15146,0.922114 -7.71294,4.89818 -12.44367,11.597987 -14.11171,19.985467 -0.57295,2.881 -0.61714,8.80337 -0.0871,11.66675 1.19818,6.47215 3.63904,11.25928 8.12047,15.92617 2.82732,2.9443 5.72623,5.09991 9.20106,6.8418 2.19889,1.10227 2.14748,0.59238 0.49586,4.92018 -2.23155,5.84754 -5.61046,12.09991 -9.41531,17.42222 -8.70703,12.17963 -14.52256,16.49548 -22.18901,16.46702 -2.7238,-0.0102 -5.25571,-0.51905 -8.81123,-1.77111 -9.76811,-3.43978 -10.38986,-3.58488 -15.31953,-3.57536 -4.66914,0.009 -7.21707,0.561 -13.50294,2.92527 -5.10038,1.91837 -7.10504,2.39814 -10.42758,2.49555 -2.32285,0.0681 -3.04782,0.0161 -4.22805,-0.30351 z m 26.01469,-108.099004 -0.64196,-0.08011 -0.059,-1.339695 c -0.15774,-3.585556 0.55258,-7.90255 1.82904,-11.11579 2.59402,-6.5301 7.11742,-12.193338 12.63053,-15.813231 4.26093,-2.797723 11.2337,-5.350126 14.61574,-5.350126 0.6841,0 0.76544,0.0579 0.87902,0.625798 0.359,1.795008 -0.01,6.163654 -0.77495,9.182617 -1.3816,5.450389 -4.18738,10.25527 -8.69905,14.897144 -5.37253,5.527558 -10.64883,8.340742 -16.75778,8.934797 -1.08855,0.105852 -2.06931,0.180365 -2.17945,0.16558 -0.11013,-0.01478 -0.48913,-0.06293 -0.84221,-0.106987 z"
         id="path2332" /></g></g></svg>
